<svg xmlns="http://www.w3.org/2000/svg" viewBox="0 0 256 256" role="img" aria-label="ScriptPilot">
  <defs>
    <linearGradient id="bg" x1="28" y1="20" x2="228" y2="236" gradientUnits="userSpaceOnUse">
      <stop offset="0" stop-color="#1fc88c"/>
      <stop offset="0.55" stop-color="#13a06f"/>
      <stop offset="1" stop-color="#0d6f55"/>
    </linearGradient>
    <linearGradient id="shine" x1="62" y1="34" x2="190" y2="202" gradientUnits="userSpaceOnUse">
      <stop offset="0" stop-color="#ffffff" stop-opacity="0.34"/>
      <stop offset="1" stop-color="#ffffff" stop-opacity="0"/>
    </linearGradient>
    <filter id="shadow" x="-20%" y="-20%" width="140%" height="140%">
      <feDropShadow dx="0" dy="12" stdDeviation="14" flood-color="#0a4d3b" flood-opacity="0.32"/>
    </filter>
  </defs>
  <rect x="20" y="20" width="216" height="216" rx="52" fill="url(#bg)" filter="url(#shadow)"/>
  <path d="M62 34h64c43 0 78 35 78 78v86c0 13-11 24-24 24H74c-22 0-40-18-40-40V62c0-15 13-28 28-28Z" fill="url(#shine)"/>
  <g fill="#ffffff">
    <path d="M54 75c0-7 6-13 13-13h45c7 0 13 6 13 13v6H78v26h34c7 0 13 6 13 13v54c0 7-6 13-13 13H67c-7 0-13-6-13-13v-6h48v-31H68c-8 0-14-6-14-14V75Z"/>
    <path d="M143 75c0-7 6-13 13-13h34c25 0 45 20 45 45s-20 45-45 45h-21v22c0 7-6 13-13 13h-13V75Zm26 13v38h18c11 0 20-9 20-19s-9-19-20-19h-18Z"/>
  </g>
</svg>
